<svg xmlns="http://www.w3.org/2000/svg" xml:space="preserve" id="inventory-list" x="0" y="0" enable-background="new 0 0 100 100" version="1.1" viewBox="0 0 100 100">
  <path d="M75.95,91.5H24.05c-3.06,0-5.55-2.49-5.55-5.55V24.05c0-3.06,2.49-5.55,5.55-5.55H34c0.83,0,1.5,0.67,1.5,1.5
	s-0.67,1.5-1.5,1.5h-9.95c-1.4,0-2.55,1.14-2.55,2.55v61.91c0,1.4,1.14,2.55,2.55,2.55h51.91c1.4,0,2.55-1.14,2.55-2.55V24.05
	c0-1.4-1.14-2.55-2.55-2.55H66c-0.83,0-1.5-0.67-1.5-1.5s0.67-1.5,1.5-1.5h9.95c3.06,0,5.55,2.49,5.55,5.55v61.91
	C81.5,89.01,79.01,91.5,75.95,91.5z M71.5,40c0-0.83-0.67-1.5-1.5-1.5H48c-0.83,0-1.5,0.67-1.5,1.5s0.67,1.5,1.5,1.5h22
	C70.83,41.5,71.5,40.83,71.5,40z M67.5,24.05v-6.11c0-1.9-1.55-3.45-3.45-3.45h-6.7c-0.7-3.42-3.73-6-7.35-6s-6.65,2.58-7.35,6h-6.7
	c-1.9,0-3.45,1.55-3.45,3.45v6.11c0,1.9,1.55,3.45,3.45,3.45h28.09C65.95,27.5,67.5,25.95,67.5,24.05z M44,17.5
	c0.83,0,1.5-0.67,1.5-1.5c0-2.48,2.02-4.5,4.5-4.5s4.5,2.02,4.5,4.5c0,0.83,0.67,1.5,1.5,1.5h8.05c0.25,0,0.45,0.2,0.45,0.45v6.11
	c0,0.25-0.2,0.45-0.45,0.45H35.95c-0.25,0-0.45-0.2-0.45-0.45v-6.11c0-0.25,0.2-0.45,0.45-0.45H44z M35.06,45.06l8-8
	c0.59-0.59,0.59-1.54,0-2.12c-0.59-0.59-1.54-0.59-2.12,0L34,41.88l-2.94-2.94c-0.59-0.59-1.54-0.59-2.12,0
	c-0.59,0.59-0.59,1.54,0,2.12l4,4c0.29,0.29,0.68,0.44,1.06,0.44S34.77,45.35,35.06,45.06z M71.5,58c0-0.83-0.67-1.5-1.5-1.5H48
	c-0.83,0-1.5,0.67-1.5,1.5s0.67,1.5,1.5,1.5h22C70.83,59.5,71.5,58.83,71.5,58z M35.06,63.06l8-8c0.59-0.59,0.59-1.54,0-2.12
	c-0.59-0.59-1.54-0.59-2.12,0L34,59.88l-2.94-2.94c-0.59-0.59-1.54-0.59-2.12,0c-0.59,0.59-0.59,1.54,0,2.12l4,4
	c0.29,0.29,0.68,0.44,1.06,0.44S34.77,63.35,35.06,63.06z M71.5,76c0-0.83-0.67-1.5-1.5-1.5H48c-0.83,0-1.5,0.67-1.5,1.5
	s0.67,1.5,1.5,1.5h22C70.83,77.5,71.5,76.83,71.5,76z M35.06,81.06l8-8c0.59-0.59,0.59-1.54,0-2.12c-0.59-0.59-1.54-0.59-2.12,0
	L34,77.88l-2.94-2.94c-0.59-0.59-1.54-0.59-2.12,0c-0.59,0.59-0.59,1.54,0,2.12l4,4c0.29,0.29,0.68,0.44,1.06,0.44
	S34.77,81.35,35.06,81.06z"></path>
</svg>
